<svg xmlns="http://www.w3.org/2000/svg" width="392.2" height="270.801" viewBox="0 0 392.2 270.801">
  <g id="illustration" transform="translate(-462.83 -176.55)">
    <g id="Data_maintenance_Two_Color" data-name="Data maintenance_Two Color" transform="translate(539.59 205.22)">
      <ellipse id="Ellipse_128940" data-name="Ellipse 128940" cx="149.176" cy="11.65" rx="149.176" ry="11.65" transform="translate(8.545 208.807)" fill="#e6e6e6" opacity="0.45"/>
      <path id="Path_93495" data-name="Path 93495" d="M108.711,47.606c-33.769,11.04-63.488,40.12-65.13,80.188-.917,22.283,3.91,79.449,74.17,94.3,112.777,23.843,214.206,15.78,235.5-41.608,18.966-51.109-11.085-119.093-67.408-133.121C246.147,37.487,174.678,26.032,108.711,47.606Z" transform="translate(-43.491 -35.337)" fill="#e6e6e6" opacity="0.3"/>
      <rect id="Rectangle_47271" data-name="Rectangle 47271" width="133.929" height="123.035" transform="translate(188.054 199.294) rotate(180)" fill="#24285b"/>
      <rect id="Rectangle_47272" data-name="Rectangle 47272" width="151.292" height="58.469" rx="4.4" transform="translate(196.318 89.52) rotate(180)" fill="#24285b"/>
      <rect id="Rectangle_47273" data-name="Rectangle 47273" width="151.292" height="58.469" rx="4.4" transform="translate(196.731 153.874) rotate(180)" fill="#24285b"/>
      <rect id="Rectangle_47274" data-name="Rectangle 47274" width="151.292" height="58.469" rx="4.4" transform="translate(196.318 218.139) rotate(180)" fill="#24285b"/>
      <rect id="Rectangle_47275" data-name="Rectangle 47275" width="151.292" height="58.469" rx="4.4" transform="translate(196.318 89.52) rotate(180)" fill="#fff" opacity="0.07"/>
      <rect id="Rectangle_47276" data-name="Rectangle 47276" width="151.292" height="58.469" rx="4.4" transform="translate(196.731 153.874) rotate(180)" fill="#fff" opacity="0.07"/>
      <rect id="Rectangle_47277" data-name="Rectangle 47277" width="151.292" height="58.469" rx="4.4" transform="translate(196.318 218.139) rotate(180)" fill="#fff" opacity="0.07"/>
      <circle id="Ellipse_128941" data-name="Ellipse 128941" cx="4.636" cy="4.636" r="4.636" transform="translate(171.356 63.779)" fill="#67d8fc"/>
      <circle id="Ellipse_128942" data-name="Ellipse 128942" cx="4.636" cy="4.636" r="4.636" transform="translate(157.721 63.779)" fill="#fff" opacity="0.46"/>
      <circle id="Ellipse_128943" data-name="Ellipse 128943" cx="4.636" cy="4.636" r="4.636" transform="translate(144.077 63.779)" fill="#fff" opacity="0.46"/>
      <circle id="Ellipse_128944" data-name="Ellipse 128944" cx="4.636" cy="4.636" r="4.636" transform="translate(171.356 129.175)" fill="#67d8fc"/>
      <circle id="Ellipse_128945" data-name="Ellipse 128945" cx="4.636" cy="4.636" r="4.636" transform="translate(157.721 129.175)" fill="#fff" opacity="0.46"/>
      <circle id="Ellipse_128946" data-name="Ellipse 128946" cx="4.636" cy="4.636" r="4.636" transform="translate(144.077 129.175)" fill="#fff" opacity="0.46"/>
      <circle id="Ellipse_128947" data-name="Ellipse 128947" cx="4.636" cy="4.636" r="4.636" transform="translate(171.356 194.688)" fill="#67d8fc"/>
      <circle id="Ellipse_128948" data-name="Ellipse 128948" cx="4.636" cy="4.636" r="4.636" transform="translate(157.721 194.688)" fill="#fff" opacity="0.46"/>
      <circle id="Ellipse_128949" data-name="Ellipse 128949" cx="4.636" cy="4.636" r="4.636" transform="translate(144.077 194.688)" fill="#fff" opacity="0.46"/>
      <rect id="Rectangle_47278" data-name="Rectangle 47278" width="117.815" height="6.661" transform="translate(179.791 31.212) rotate(180)" fill="#67d8fc"/>
      <path id="Path_93496" data-name="Path 93496" d="M292.795,79.15a30.231,30.231,0,0,0-1.9,7.85,2.439,2.439,0,0,0,2.358,2.529,5.391,5.391,0,0,0,5.19-2.691l2.64-3.668a4.363,4.363,0,0,0-.524-5.039C298.448,75.492,293.742,76.338,292.795,79.15Z" transform="translate(-41.575 -34.827)" fill="#f4a28c"/>
      <path id="Path_93497" data-name="Path 93497" d="M322.216,243.1s1.29,3.6,4.535,3.87,4.1,3.446,1.179,4.273-10.45-2.922-10.45-2.922l.212-4.686Z" transform="translate(-41.369 -32.721)" fill="#68e1fd"/>
      <path id="Path_93498" data-name="Path 93498" d="M277.948,243.1s-1.29,3.6-4.535,3.87-4.1,3.446-1.179,4.273,10.45-2.922,10.45-2.922l-.212-4.686Z" transform="translate(-41.733 -32.721)" fill="#68e1fd"/>
      <path id="Path_93499" data-name="Path 93499" d="M274,100.37s-23.178,4.686-21.253,26.262-19.147,33.457-6.238,45.943,30.1,5.462,30.1,5.462Z" transform="translate(-41.951 -34.398)" fill="#68e1fd"/>
      <path id="Path_93500" data-name="Path 93500" d="M274,100.37s-23.178,4.686-21.253,26.262-19.147,33.457-6.238,45.943,30.1,5.462,30.1,5.462Z" transform="translate(-41.951 -34.398)" fill="#65c8fa" opacity="0.39"/>
      <path id="Path_93501" data-name="Path 93501" d="M299.869,84.04l-.2,15.922-8.777-.736,3.668-11.287Z" transform="translate(-41.575 -34.73)" fill="#f4a28c"/>
      <path id="Path_93502" data-name="Path 93502" d="M291.836,82,290,83.431a.776.776,0,0,0,.121,1.31l1.683.857Z" transform="translate(-41.584 -34.768)" fill="#f4a28c"/>
      <path id="Path_93503" data-name="Path 93503" d="M294.089,89.419a7.518,7.518,0,0,0,3.527-1.139s-.534,3.134-4.636,4.444Z" transform="translate(-41.559 -34.69)" fill="#ce8172" opacity="0.31"/>
      <path id="Path_93504" data-name="Path 93504" d="M283.325,98.31a112.393,112.393,0,0,1,42.043,8.989,16.225,16.225,0,0,1,8.183,22.17L310.675,175.09l-42.406-2.519s-7.719-25.637-6.167-54.65A20.83,20.83,0,0,1,283.325,98.31Z" transform="translate(-41.799 -34.435)" fill="#61a1f5"/>
      <path id="Path_93505" data-name="Path 93505" d="M276.38,173.068s-1.743-65.352.665-73.938l-2.539.373a119.921,119.921,0,0,0-2.016,25.96c.333,12.667,1.35,48.664,1.643,48.724A11.527,11.527,0,0,0,276.38,173.068Z" transform="translate(-41.718 -34.428)" fill="#24285b"/>
      <path id="Path_93506" data-name="Path 93506" d="M299,174.413l7.6-73.182-3.638-1.391-8.848,77.123Z" transform="translate(-41.55 -34.413)" fill="#24285b"/>
      <path id="Path_93507" data-name="Path 93507" d="M310.626,174.529,323.3,244.3h-6.339l-15.882-37.871a65.775,65.775,0,0,0-28.217-31.764L268.22,172Z" transform="translate(-41.75 -33.271)" fill="#24285b"/>
      <path id="Path_93508" data-name="Path 93508" d="M314.158,113.25s-10.007,7.387-8.062,20.6,3.92,23.48-8.253,20.407-18.734-31.4-18.734-31.4l-14.209.353,2.459,31.593,8.243.564a8.939,8.939,0,0,1,8.122,7.135l2.217,11.025,24.75,1.461,3.507-5.2,15.439-16.759,1.874-26.665Z" transform="translate(-41.776 -34.267)" opacity="0.08"/>
      <rect id="Rectangle_47279" data-name="Rectangle 47279" width="27.542" height="37.72" transform="translate(225.554 80.297) rotate(-3.89)" fill="#ffa811"/>
      <path id="Path_93509" data-name="Path 93509" d="M268.22,172l6.55,72.275h8.415s-1.965-54.418,13.232-65.957Z" transform="translate(-41.75 -33.271)" fill="#24285b"/>
      <path id="Path_93510" data-name="Path 93510" d="M313.052,117.377a10.329,10.329,0,0,1,18.482-6.046c4.867,6.208,9.342,16.567,8.979,33.578-.8,36.279-22.11,46.044-55,6.308l6.47-5.039s12.97,11.045,24.831,11.206C325.638,157.505,312.447,134.71,313.052,117.377Z" transform="translate(-41.617 -34.327)" fill="#68e1fd"/>
      <path id="Path_93511" data-name="Path 93511" d="M313.052,117.377a10.329,10.329,0,0,1,18.482-6.046c4.867,6.208,9.342,16.567,8.979,33.578-.8,36.279-22.11,46.044-55,6.308l6.47-5.039s12.97,11.045,24.831,11.206C325.638,157.505,312.447,134.71,313.052,117.377Z" transform="translate(-41.617 -34.327)" fill="#65c8fa" opacity="0.39"/>
      <path id="Path_93512" data-name="Path 93512" d="M268.47,131.67s9.432,17.394,28.449,12.486l.413,6.046-27.471,1.955Z" transform="translate(-41.748 -34.127)" opacity="0.08"/>
      <path id="Path_93513" data-name="Path 93513" d="M290.838,146.881s-3.87-6.832-8.616-5.039,3.326,9.07,3.326,9.07Z" transform="translate(-41.654 -34.029)" fill="#f4a28c"/>
      <path id="Path_93514" data-name="Path 93514" d="M298.065,83.954a1.774,1.774,0,0,1-2.016,1.139,6.984,6.984,0,0,0-5.26.615c-2.812,1.834-.333,5.966,2.9,5.18s7.931-6.046,7.931-6.046,3.2-4.434,2.479-7.3-7.82-7.165-11.085-2.328c-2.086,3.094,1.008,4.716,3.477,5.492a2.56,2.56,0,0,1,1.612,3.326Z" transform="translate(-41.585 -34.866)" fill="#24285b"/>
      <path id="Path_93515" data-name="Path 93515" d="M296.47,83.23s.564-1.784,1.874-1.25.5,3.114-1.4,2.822Z" transform="translate(-41.532 -34.77)" fill="#f4a28c"/>
      <path id="Path_93516" data-name="Path 93516" d="M304.474,81.314,290.89,74.038l2.449-.393a8.9,8.9,0,0,1,4.434-4.374c3.023-1.159,7.86,2.318,8.687,5.472S304.474,81.314,304.474,81.314Z" transform="translate(-41.575 -35.076)" fill="#ffd200"/>
      <rect id="Rectangle_47280" data-name="Rectangle 47280" width="56.746" height="40.622" transform="translate(18.764 104.329)" fill="#ffd200"/>
      <path id="Path_93517" data-name="Path 93517" d="M107.308,163.315a4.686,4.686,0,0,0-4.686-4.686,4.776,4.776,0,0,0-.756.06,6.308,6.308,0,0,0-5.563-3.326h-.232a7.216,7.216,0,0,0,.232-1.814,7.508,7.508,0,1,0-15.005,0,7.708,7.708,0,0,0,.232,1.814H81.3A6.319,6.319,0,1,0,81.3,168h21.918A4.676,4.676,0,0,0,107.308,163.315Z" transform="translate(-43.247 -33.945)" fill="#fff"/>
      <path id="Path_93518" data-name="Path 93518" d="M96.3,165.249l-5.452-7.739-5.442,7.739h2.731v6.006H93.5v-6.006Z" transform="translate(-43.166 -33.821)" fill="#24285b"/>
      <rect id="Rectangle_47281" data-name="Rectangle 47281" width="56.746" height="40.622" transform="translate(31.018 41.589)" fill="#ffd200"/>
      <path id="Path_93519" data-name="Path 93519" d="M119.478,101.385a4.686,4.686,0,0,0-4.686-4.686,4.6,4.6,0,0,0-.756.06,6.339,6.339,0,0,0-5.573-3.326h-.232a7.215,7.215,0,0,0,.232-1.814,7.508,7.508,0,1,0-15.005,0,7.709,7.709,0,0,0,.232,1.814h-.232a6.319,6.319,0,0,0,0,12.637H115.4A4.686,4.686,0,0,0,119.478,101.385Z" transform="translate(-43.153 -34.726)" fill="#fff"/>
      <path id="Path_93520" data-name="Path 93520" d="M97.57,103.976l5.452,7.739,5.442-7.739h-2.731V97.97h-5.351v6.006Z" transform="translate(-43.072 -34.56)" fill="#24285b"/>
    </g>
    <g id="Group_93689" data-name="Group 93689" transform="translate(462.83 374.521)">
      <rect id="Rectangle_47246" data-name="Rectangle 47246" width="8.747" height="49.51" transform="translate(10.359 23.319)" fill="#68e1fd"/>
      <rect id="Rectangle_47247" data-name="Rectangle 47247" width="8.747" height="49.51" transform="translate(57.622 23.319)" fill="#68e1fd"/>
      <rect id="Rectangle_47248" data-name="Rectangle 47248" width="8.747" height="49.51" transform="translate(10.359 23.319)" fill="#67d8fc" opacity="0.08"/>
      <rect id="Rectangle_47249" data-name="Rectangle 47249" width="8.747" height="49.51" transform="translate(57.622 23.319)" fill="#67d8fc" opacity="0.08"/>
      <rect id="Rectangle_47250" data-name="Rectangle 47250" width="76.76" height="27.078" fill="#68e1fd"/>
      <path id="Path_93435" data-name="Path 93435" d="M276.6,186.21l9.16,27.078h12.7l-10.43-27.078Z" transform="translate(-272.701 -186.21)" fill="#24285b"/>
      <path id="Path_93436" data-name="Path 93436" d="M299.91,186.21l9.171,27.078h12.687l-10.43-27.078Z" transform="translate(-272.52 -186.21)" fill="#24285b"/>
      <path id="Path_93437" data-name="Path 93437" d="M323.15,186.21l9.17,27.078h12.687l-10.43-27.078Z" transform="translate(-272.34 -186.21)" fill="#24285b"/>
      <rect id="Rectangle_47251" data-name="Rectangle 47251" width="76.76" height="12.698" transform="translate(0 37.337)" fill="#68e1fd"/>
      <rect id="Rectangle_47252" data-name="Rectangle 47252" width="76.76" height="12.698" transform="translate(0 37.337)" fill="#fff" opacity="0.46"/>
    </g>
    <g id="Group_93690" data-name="Group 93690" transform="translate(674.671 176.55)">
      <path id="Path_93438" data-name="Path 93438" d="M91.284,134.18,68.64,168.856h45.278Z" transform="translate(-68.64 -134.18)" fill="#ffd200"/>
      <rect id="Rectangle_47254" data-name="Rectangle 47254" width="3.215" height="10.42" transform="translate(20.85 12.899)" fill="#24285b"/>
      <rect id="Rectangle_47255" data-name="Rectangle 47255" width="3.215" height="3.215" transform="translate(20.85 25.355)" fill="#24285b"/>
    </g>
  </g>
</svg>
